<svg xmlns="http://www.w3.org/2000/svg" version="1.1" xmlns:xlink="http://www.w3.org/1999/xlink" xmlns:svgjs="http://svgjs.dev/svgjs" width="2000" height="414" viewBox="0 0 2000 414"><g transform="matrix(1,0,0,1,-1.211950715557009,-0.8616198996871844)"><svg viewBox="0 0 396 82" data-background-color="#ffffff" preserveAspectRatio="xMidYMid meet" height="414" width="2000" xmlns="http://www.w3.org/2000/svg" xmlns:xlink="http://www.w3.org/1999/xlink"><g id="tight-bounds" transform="matrix(1,0,0,1,0.23996624168029257,0.17073553453062118)"><svg viewBox="0 0 395.52 81.65860545152172" height="81.65860545152172" width="395.52"><g><svg viewBox="0 0 468.64891831510965 96.75671803189718" height="81.65860545152172" width="395.52"><g transform="matrix(1,0,0,1,73.1289183151097,0)"><svg viewBox="0 0 395.52 96.75671803189718" height="96.75671803189718" width="395.52"><g id="textblocktransform"><svg viewBox="0 0 395.52 96.75671803189718" height="96.75671803189718" width="395.52" id="textblock"><g><svg viewBox="0 0 395.52 96.75671803189718" height="96.75671803189718" width="395.52"><path d="M394.594 20.752C392.735 10.709 387.435 7.917 387.435 7.917 371.165-2.428 350.86-0.198 332.619 1.289 300.414 1.349 268.339 3.558 236.208 4.743 168.767 4.924 100.749 1.951 33.643 9.283 27.339 11.533-6.54 9.725 1.121 22.038 3.129 27.16 10.456 32.845 10.232 37.545 11.236 38.368 12.631 36.48 13.226 37.665 15.309 40.859 18.711 39.353 21.501 41.241 17.614 46.283 20.403 50.481 23.062 54.88 18.377 56.025 12.371 55.482 9.675 59.279 9.396 62.03 7.89 61.508 6.235 61.388 5.026 61.307 2.59 61.609 2.999 62.472 4.394 65.425-1.594 67.132 2.162 70.025-0.422 73.158 3.948 75.87 3.353 79.265 3.278 79.948 3.687 80.53 4.338 80.691 7.22 81.555 3.018 83.242 3.464 85.07 33.029 97.564 65.104 88.926 95.394 94.671 103.259 90.654 97.346 96.097 100.489 95.254 102.943 94.27 104.728 98.347 107.499 96.037 107.927 95.374 107.276 93.808 108.8 94.109 109.6 94.27 110.307 94.229 110.418 93.305 110.586 91.919 109.117 92.783 108.726 92.06 112.947 88.404 111.906 97.102 115.866 96.74 115.68 95.676 114.528 94.149 116.889 94.35 119.232 92.823 119.306 91.558 121.389 94.993 121.463 95.736 121.835 96.258 122.43 96.62 128.938 92.884 135.409 97.945 142.233 96.258 146.417 94.41 150.433 97.262 154.672 96.559 156.16 95.997 157.666 94.993 159.098 96.68 176.632 97.041 195.319 95.535 211.943 96.74 256.364 94.49 303.836 97.664 350.674 94.691 361.719 93.546 373.192 91.919 383.958 90.614 383.958 90.614 392.679 87.038 392.679 70.969S394.538 56.908 394.817 44.113C395.096 31.318 396.398 30.796 394.538 20.752Z" opacity="1" fill="#7a26c1" data-fill-palette-color="tertiary"></path><g transform="matrix(1,0,0,1,55.76832,26.230666666666668)"><svg width="283.98335999999995" viewBox="2.15 -39.25 325.5 50.78" height="44.29538469856384" data-palette-color="#ffffff"><path d="M2.15-33.75L2.15 0 7.28 0 7.28-14.13 22.1-14.13 22.1-17.53 7.28-17.53 7.28-30.2 23.4-30.2 23.4-33.75 2.15-33.75ZM36.42 0.28L36.42 0.28Q38.6 0.28 40.31-0.11 42.02-0.5 43.27-1.11 44.52-1.73 45.32-2.43 46.12-3.13 46.45-3.75L46.45-3.75 46.87 0 51.1 0 51.1-18.85Q51.1-22.85 49.66-25.28 48.22-27.7 45.47-28.8 42.72-29.9 38.77-29.9L38.77-29.9Q36.42-29.9 34.37-29.41 32.32-28.93 30.71-27.88 29.1-26.83 28.01-25.13 26.92-23.43 26.52-20.98L26.52-20.98 31.47-19.65Q31.85-22.13 32.84-23.61 33.82-25.1 35.35-25.78 36.87-26.45 38.8-26.45L38.8-26.45Q41.02-26.45 42.65-25.7 44.27-24.95 45.15-23.34 46.02-21.73 46.02-19.1L46.02-19.1 46.02-17.43 36.35-17.43Q34.02-17.43 32.15-17 30.27-16.57 28.96-15.59 27.65-14.6 26.95-12.91 26.25-11.23 26.25-8.68L26.25-8.68Q26.25-6.03 26.96-4.29 27.67-2.55 29.04-1.55 30.4-0.55 32.26-0.14 34.12 0.28 36.42 0.28ZM37.52-3.05L37.52-3.05Q36.25-3.05 35.12-3.31 34-3.58 33.15-4.2 32.3-4.83 31.84-5.95 31.37-7.08 31.37-8.88L31.37-8.88Q31.37-10.63 31.85-11.75 32.32-12.88 33.16-13.49 34-14.1 35.12-14.34 36.25-14.58 37.52-14.58L37.52-14.58 45.95-14.58 45.95-6.85Q45.52-5.93 44.4-5.05 43.27-4.17 41.53-3.61 39.8-3.05 37.52-3.05ZM56.52-29.63L56.52 0 61.57 0 61.57-23.9 60.5-29.63 56.52-29.63ZM75.09-16.93L75.09 0 80.15 0 80.15-16.95Q80.15-23 78.01-26.46 75.87-29.93 70.72-29.93L70.72-29.93Q65.55-29.93 62.26-26.7 58.97-23.48 58.97-19.83L58.97-19.83 61.42-18.28Q61.42-21.78 63.6-24.08 65.77-26.38 68.9-26.38L68.9-26.38Q72.02-26.38 73.56-24.23 75.09-22.08 75.09-16.93L75.09-16.93ZM97.82 0.33L97.82 0.33Q100.57 0.33 103.07-0.3L103.07-0.3 103.07-3.73Q101.34-3.15 99.52-3.15L99.52-3.15Q97.47-3.15 96.34-4.03 95.22-4.9 95.22-7.63L95.22-7.63 95.22-26.08 105.02-26.08 105.02-29.63 95.22-29.63 95.22-36.33 90.14-36.33 90.14-29.63 83.22-29.63 83.22-26.08 90.14-26.08 90.14-6.45Q90.14-2.55 92.34-1.11 94.54 0.33 97.82 0.33ZM118.57 0.28L118.57 0.28Q120.74 0.28 122.45-0.11 124.17-0.5 125.42-1.11 126.67-1.73 127.47-2.43 128.27-3.13 128.59-3.75L128.59-3.75 129.02 0 133.24 0 133.24-18.85Q133.24-22.85 131.8-25.28 130.37-27.7 127.62-28.8 124.87-29.9 120.92-29.9L120.92-29.9Q118.57-29.9 116.52-29.41 114.47-28.93 112.85-27.88 111.24-26.83 110.15-25.13 109.07-23.43 108.67-20.98L108.67-20.98 113.62-19.65Q113.99-22.13 114.98-23.61 115.97-25.1 117.49-25.78 119.02-26.45 120.94-26.45L120.94-26.45Q123.17-26.45 124.79-25.7 126.42-24.95 127.29-23.34 128.17-21.73 128.17-19.1L128.17-19.1 128.17-17.43 118.49-17.43Q116.17-17.43 114.29-17 112.42-16.57 111.1-15.59 109.79-14.6 109.09-12.91 108.39-11.23 108.39-8.68L108.39-8.68Q108.39-6.03 109.1-4.29 109.82-2.55 111.18-1.55 112.54-0.55 114.4-0.14 116.27 0.28 118.57 0.28ZM119.67-3.05L119.67-3.05Q118.39-3.05 117.27-3.31 116.14-3.58 115.29-4.2 114.44-4.83 113.98-5.95 113.52-7.08 113.52-8.88L113.52-8.88Q113.52-10.63 113.99-11.75 114.47-12.88 115.3-13.49 116.14-14.1 117.27-14.34 118.39-14.58 119.67-14.58L119.67-14.58 128.09-14.58 128.09-6.85Q127.67-5.93 126.54-5.05 125.42-4.17 123.68-3.61 121.94-3.05 119.67-3.05ZM150.84 0.2L150.84 0.2Q156.69 0.2 159.74-1.8 162.79-3.8 162.79-7.9L162.79-7.9Q162.79-12.35 159.73-14.04 156.66-15.73 152.14-16.65L152.14-16.65Q148.31-17.53 145.83-18.48 143.34-19.43 143.34-22.03L143.34-22.03Q143.34-24.1 144.98-25.33 146.61-26.55 149.99-26.55L149.99-26.55Q153.49-26.55 155.53-24.85 157.56-23.15 157.99-19.88L157.99-19.88 162.46-21.4Q161.74-25.95 158.6-27.91 155.46-29.88 150.04-29.88L150.04-29.88Q144.59-29.88 141.46-27.86 138.34-25.85 138.34-22L138.34-22Q138.34-17.78 141.18-15.96 144.01-14.15 148.54-13.18L148.54-13.18Q152.51-12.3 155.14-11.34 157.76-10.38 157.76-7.55L157.76-7.55Q157.76-5.58 156.05-4.36 154.34-3.15 150.91-3.15L150.91-3.15Q147.29-3.15 145.15-4.78 143.01-6.4 142.59-10.15L142.59-10.15 138.11-8.63Q138.89-3.65 142.19-1.73 145.49 0.2 150.84 0.2ZM166.09-29.63L174.74 0 182.46 0 191.04-29.63 185.74-29.63 178.61-3.48 178.56-3.48 171.36-29.63 166.09-29.63ZM167.29 8.05L167.29 11.53Q173.04 11.53 176.74 9.24 180.44 6.95 182.46 0L182.46 0 177.76 0Q176.34 4.88 173.94 6.46 171.54 8.05 167.29 8.05L167.29 8.05ZM206.98-33.75L206.98 0 212.11 0 212.11-14.13 226.93-14.13 226.93-17.53 212.11-17.53 212.11-30.2 228.23-30.2 228.23-33.75 206.98-33.75ZM233.38-29.65L233.38 0 238.45 0 238.45-29.65 233.38-29.65ZM238.45-37.75L233.38-37.75 233.38-33.27 238.45-33.27 238.45-37.75ZM244.88-29.63L244.88 0 249.93 0 249.93-23.9 248.85-29.63 244.88-29.63ZM263.45-16.93L263.45 0 268.5 0 268.5-16.95Q268.5-23 266.36-26.46 264.23-29.93 259.08-29.93L259.08-29.93Q253.9-29.93 250.61-26.7 247.33-23.48 247.33-19.83L247.33-19.83 249.78-18.28Q249.78-21.78 251.95-24.08 254.13-26.38 257.25-26.38L257.25-26.38Q260.38-26.38 261.91-24.23 263.45-22.08 263.45-16.93L263.45-16.93ZM293.1-4.88L293.42 0 298.12 0 298.12-39.25 293.1-39.25 293.1-4.88ZM283.72 0.2L283.72 0.2Q288.57 0.2 291.92-2.24 295.27-4.67 295.27-7.3L295.27-7.3 293.1-10.03Q293.1-7.43 290.84-5.38 288.57-3.33 285.42-3.33L285.42-3.33Q282.07-3.33 280.12-5.76 278.17-8.2 278.17-14.85L278.17-14.85Q278.17-21.5 280.12-23.94 282.07-26.38 285.42-26.38L285.42-26.38Q288.57-26.38 290.84-24.34 293.1-22.3 293.1-19.73L293.1-19.73 295.27-22.38Q295.27-25.03 291.92-27.46 288.57-29.9 283.72-29.9L283.72-29.9Q278.4-29.9 275.74-26.18 273.07-22.45 273.07-14.88L273.07-14.88Q273.07-7.3 275.74-3.55 278.4 0.2 283.72 0.2ZM315.7 0.2L315.7 0.2Q321.55 0.2 324.6-1.8 327.65-3.8 327.65-7.9L327.65-7.9Q327.65-12.35 324.58-14.04 321.52-15.73 317-16.65L317-16.65Q313.17-17.53 310.68-18.48 308.2-19.43 308.2-22.03L308.2-22.03Q308.2-24.1 309.83-25.33 311.47-26.55 314.85-26.55L314.85-26.55Q318.35-26.55 320.38-24.85 322.42-23.15 322.85-19.88L322.85-19.88 327.32-21.4Q326.6-25.95 323.46-27.91 320.32-29.88 314.9-29.88L314.9-29.88Q309.45-29.88 306.32-27.86 303.2-25.85 303.2-22L303.2-22Q303.2-17.78 306.03-15.96 308.87-14.15 313.4-13.18L313.4-13.18Q317.37-12.3 320-11.34 322.62-10.38 322.62-7.55L322.62-7.55Q322.62-5.58 320.91-4.36 319.2-3.15 315.77-3.15L315.77-3.15Q312.15-3.15 310.01-4.78 307.87-6.4 307.45-10.15L307.45-10.15 302.97-8.63Q303.75-3.65 307.05-1.73 310.35 0.2 315.7 0.2Z" opacity="1" transform="matrix(1,0,0,1,0,0)" fill="#ffffff" class="wordmark-text-0" data-fill-palette-color="quaternary" id="text-0"></path></svg></g></svg></g></svg></g></svg></g><g transform="matrix(1,0,0,1,0,3.805764242587948)"><svg viewBox="0 0 62.671841077011536 89.14518954672128" height="89.14518954672128" width="62.671841077011536"><g><svg xmlns="http://www.w3.org/2000/svg" xmlns:xlink="http://www.w3.org/1999/xlink" xml:space="preserve" version="1.1" style="shape-rendering:geometricPrecision;text-rendering:geometricPrecision;image-rendering:optimizeQuality;" viewBox="10687.176819707756 2530.2936316507366 38628.49547847521 54945.64212820699" x="0" y="0" fill-rule="evenodd" clip-rule="evenodd" height="89.14518954672128" width="62.671841077011536" class="icon-icon-0" data-fill-palette-color="accent" id="icon-0"><g fill="#6936f5" data-fill-palette-color="accent"><path class="" d="M20306 15613c-160 894-246 1989-119 3221 223 2165 1105 4749 3410 7402 25 2 49 3 73 5 247 15 491 19 735 14-125-876-162-1800-101-2723 6-92 13-185 21-277-1551-1599-2481-3045-3102-4543-413-997-687-2008-916-3099z m26752 35215c-9-138 96-256 233-265 138-9 256 96 265 233 46 707-42 1411-256 2069-212 650-547 1254-998 1773-91 104-248 115-353 24-104-91-115-248-24-353 407-468 709-1013 900-1599 195-598 275-1239 233-1883z m-11021-15934l11798 13279c138 156 269 321 393 494 814 1141 1172 2502 1071 3806-102 1315-669 2572-1704 3491-132 118-276 232-430 342-238 170-496 324-770 461-992 495-2219 779-3377 694-1195-89-2320-566-3059-1601-118-165-224-340-317-527l-7734-15495c-932 991-1880 2640-2799 5395-69 209-294 322-503 253-44-15-84-36-118-63l0 0-2272-1761c-44-33-80-75-106-121l-1-1 0 0c-1-3-3-5-4-8l0 0c-1-3-3-5-4-8l0 0c-1-3-3-6-4-8l0 0c-1-3-3-6-4-8l0 0c-1-3-2-6-4-9l0 0c-1-3-2-6-3-9l0 0c-1-3-2-6-3-9l0 0c-1-3-2-6-3-9l0 0c-1-3-2-6-3-9-25-82-24-172 8-255l0 0 2-6 1-3 1-3c1-2 2-4 3-6l1-1c1-3 2-5 3-8l1-2 4-7 0-1c1-3 3-5 4-8l1-2c1-2 2-4 4-7l2-3 3-6 2-3 3-5 1-1c1272-2009 2480-4147 3266-6792 13-44 26-89 39-133-518-175-1018-359-1500-555 7 28 14 56 21 84 81 322 162 644 292 814 134 175 100 426-75 559-152 116-360 106-500-13-1946-1644-3217-614-4546 463-128 104-257 208-310 251-165 131-401 111-541-41-4282-4207-7289-9354-9164-15060-2010-6118-2718-12878-2301-19807 13-220 202-388 422-375 153 9 280 103 340 233 798 1619 1875 3794 3343 5814 1453 1999 3291 3849 5623 4850 130 55 215 171 237 300l0 0c305 1752 601 3249 1196 4684 524 1262 1284 2490 2495 3823 100-594 243-1178 432-1740 70-209 296-321 505-252 161 54 264 200 272 359 48 954 184 1816 495 2641 254 672 627 1326 1168 1991 236-545 516-1044 817-1493 123-183 370-232 553-109 120 81 183 216 176 351-16 1344 59 2244 290 2818 193 481 522 717 1039 809 12 2 24 5 35 8-24-373-55-753-93-1142-27-180 73-362 250-431 205-80 437 21 517 227 870 2203 1688 3691 3000 4606 1320 920 3181 1296 6142 1279 220-1 399 177 400 397 0 98-35 188-93 257l1 1c-577 690-1492 946-2407 1202-274 77-548 153-827 249-428 147-816 335-1091 638z m-4298 3994c11-11 23-22 36-32 74-65 148-127 223-186 1070-850 2100-1050 3043-1125-776-2704 357-3540 1828-4045 270-93 572-177 874-262 344-96 689-193 1003-312-2403-97-4041-529-5290-1399-991-690-1717-1640-2370-2904 104 3139-274 5715-935 7940-774 2602-1932 4715-3164 6686l1549 1201c1034-2930 2125-4599 3203-5563z m782 386l7837 15702c77 154 161 294 251 421 583 816 1491 1195 2465 1267 1012 75 2090-176 2964-612 242-121 465-253 664-395 124-89 245-185 362-289 873-776 1352-1840 1439-2954 88-1125-221-2300-924-3284-102-143-215-285-340-425l-11580-13033c-97 502-25 1178 295 2110 72 209-40 436-248 508-45 15-90 22-135 22-941 49-1993 137-3049 964z m-2815-4147c452-1936 681-4146 572-6757-66 26-139 34-213 21-811-144-1330-522-1642-1299-169-421-268-961-315-1656-536 1190-850 2628-671 4264 42 380 111 772 209 1173 10 18 20 38 27 58 18 48 26 97 25 145 338 1257 973 2614 2007 4051z m-988-23c-820-1228-1368-2404-1702-3516-653 201-1353 311-2143 290-583-15-1212-101-1907-274 705 696 1497 1312 2379 1861 1005 626 2128 1165 3374 1638z m-1903-4288c-77-351-133-695-170-1032-118-1076-41-2075 167-2983-1059 170-2090 303-3187 237-899-54-1832-242-2840-649 540 786 1121 1510 1770 2166 958 968 2069 1791 3424 2443 8 4 15 8 23 12 282-46 552-111 815-193z m-1611-4607c566-51 1132-138 1709-233-709-819-1185-1622-1500-2457-91-241-168-484-234-730-35 264-60 528-78 794-59 895-21 1788 103 2627z m-2780-142c-2009-2557-2813-5040-3030-7152-216-2099 149-3832 486-4910-2329-1095-4166-2961-5622-4965-1121-1542-2015-3164-2734-4572-227 6297 505 12418 2337 17992 1801 5481 4665 10433 8725 14501l28-22c1351-1095 2653-2150 4516-1175-52-202-108-393-179-534-720-332-1396-692-2028-1086-1383-861-2558-1879-3540-3103-138-172-111-423 61-561 113-91 260-110 387-64l0 0c987 365 1835 565 2585 637-912-562-1711-1211-2428-1936-1016-1026-1865-2200-2647-3497-114-189-53-435 136-548 130-79 288-74 410-1 912 511 1747 822 2537 997z" fill="#6936f5" fill-rule="nonzero" data-fill-palette-color="accent"></path></g></svg></g></svg></g></svg></g><defs></defs></svg><rect width="395.52" height="81.65860545152172" fill="none" stroke="none" visibility="hidden"></rect></g></svg></g></svg>